# xmcd CD database file
#
# Track frame offsets:
#	150
#	27222
#	42005
#	76287
#	104475
#	126947
#	163547
#	199545
#
# Disc length: 3057 seconds
#
# Revision: 0
# Processed by: cddbd v1.5.1PL0 Copyright (c) Steve Scherf et al.
# Submitted via: CDex 1.51
#
DISCID=5c0bef08
DTITLE=Various Artist - BALLAD AND BLUES ON TIME
DYEAR=2005
DGENRE=Jazz
TTITLE0=LET'S GROOVE - Stanley Turrentine
TTITLE1=TIME AFTER TIME - Stanley Turrentine
TTITLE2=BLUES BLUE - Sony Clark
TTITLE3=NICA - Sony Clark
TTITLE4=BLUES MAMBO - Sony Clark
TTITLE5=MONK'S MOOD - Kenny Dorham
TTITLE6=IN YOUR OWN SWEET WAY - Kenny Dorham
TTITLE7=CAN'T HELP LOVIN' DAT MAN - Kenny Dorham
EXTD=YEAR: 2005
EXTT0=
EXTT1=
EXTT2=
EXTT3=
EXTT4=
EXTT5=
EXTT6=
EXTT7=
PLAYORDER=
